<?xml version="1.0" encoding="UTF-8"?>
<svg version="1.1" xmlns="http://www.w3.org/2000/svg" width="1088" height="364">
<path d="M0 0 C359.04 0 718.08 0 1088 0 C1088 120.12 1088 240.24 1088 364 C728.96 364 369.92 364 0 364 C0 243.88 0 123.76 0 0 Z " fill="#FCFCFD" transform="translate(0,0)"/>
<path d="M0 0 C0.83789062 0.61488281 1.67578125 1.22976562 2.5390625 1.86328125 C26.14993676 19.96495151 43.65822936 47.00024498 47.77734375 76.8203125 C49.04296788 89.21010666 48.3508925 101.79344278 46 114 C45.76023437 115.50433594 45.76023437 115.50433594 45.515625 117.0390625 C40.24494845 145.17307923 20.94678064 170.23863932 -2.25 186.2421875 C-12.15841817 192.55404042 -22.70080361 197.73261281 -34 201 C-35.10158447 201.32798584 -36.20316895 201.65597168 -37.33813477 201.99389648 C-46.82713925 204.61580288 -55.56072181 205.60554698 -65.39160156 205.46655273 C-67.63160863 205.43741403 -69.86925576 205.44604559 -72.109375 205.45898438 C-99.95762553 205.41984377 -125.82182848 193.92385275 -146 175 C-147.33804688 173.78183594 -147.33804688 173.78183594 -148.703125 172.5390625 C-166.65718006 155.52126184 -177.25487364 132.14088205 -181 108 C-181.185625 106.85917969 -181.37125 105.71835938 -181.5625 104.54296875 C-183.75786993 86.76439264 -181.04418389 68.77970185 -175 52 C-174.65324219 51.01902344 -174.30648437 50.03804688 -173.94921875 49.02734375 C-163.73724753 22.39199614 -140.85914524 -0.326443 -115 -12 C-76.50154978 -27.57844265 -33.86800047 -25.08561066 0 0 Z " fill="#26A8A7" transform="translate(222,92)"/>
<path d="M0 0 C0.83789062 0.61488281 1.67578125 1.22976562 2.5390625 1.86328125 C26.14993676 19.96495151 43.65822936 47.00024498 47.77734375 76.8203125 C49.04296788 89.21010666 48.3508925 101.79344278 46 114 C45.76023437 115.50433594 45.76023437 115.50433594 45.515625 117.0390625 C40.24494845 145.17307923 20.94678064 170.23863932 -2.25 186.2421875 C-12.15841817 192.55404042 -22.70080361 197.73261281 -34 201 C-35.10158447 201.32798584 -36.20316895 201.65597168 -37.33813477 201.99389648 C-46.82713925 204.61580288 -55.56072181 205.60554698 -65.39160156 205.46655273 C-67.63160863 205.43741403 -69.86925576 205.44604559 -72.109375 205.45898438 C-99.95762553 205.41984377 -125.82182848 193.92385275 -146 175 C-147.33804688 173.78183594 -147.33804688 173.78183594 -148.703125 172.5390625 C-166.65718006 155.52126184 -177.25487364 132.14088205 -181 108 C-181.185625 106.85917969 -181.37125 105.71835938 -181.5625 104.54296875 C-183.75786993 86.76439264 -181.04418389 68.77970185 -175 52 C-174.65324219 51.01902344 -174.30648437 50.03804688 -173.94921875 49.02734375 C-163.73724753 22.39199614 -140.85914524 -0.326443 -115 -12 C-76.50154978 -27.57844265 -33.86800047 -25.08561066 0 0 Z M-134 22 C-139.80452567 28.77706524 -143.68668168 36.02962873 -147.26171875 44.12890625 C-149.25911638 47.42797875 -150.3893478 47.93940714 -154 49 C-157.74284532 52.11903777 -158.3154446 54.96560043 -158.75 59.625 C-158.85463339 61.74905774 -158.93778371 63.87427693 -159 66 C-159.0515625 66.99515625 -159.103125 67.9903125 -159.15625 69.015625 C-159.33414674 74.4414757 -159.17600246 78.35815026 -156 83 C-155.34 83.33 -154.68 83.66 -154 84 C-153.375 87.0625 -153.375 87.0625 -153 90 C-153.845625 90.020625 -154.69125 90.04125 -155.5625 90.0625 C-160.98769547 91.54209876 -164.09726235 95.05879638 -167.109375 99.71484375 C-170.64366409 107.3335707 -170.23885156 117.90485371 -167.875 125.8125 C-164.39522202 134.40674235 -159.69614906 141.66336989 -152 147 C-151.030625 147.350625 -150.06125 147.70125 -149.0625 148.0625 C-148.381875 148.371875 -147.70125 148.68125 -147 149 C-146.87625 149.845625 -146.7525 150.69125 -146.625 151.5625 C-145.51703621 157.65630086 -141.03528362 162.01972404 -136.6875 166.25 C-128.57882284 171.53006885 -121.91275301 174.18122948 -112.25 174.0625 C-111.55261719 174.05798828 -110.85523438 174.05347656 -110.13671875 174.04882812 C-108.42444197 174.0371002 -106.71220967 174.01916653 -105 174 C-105 174.66 -105 175.32 -105 176 C-103.62884903 176.79831456 -102.25285116 177.5883061 -100.875 178.375 C-99.72644531 179.03628906 -99.72644531 179.03628906 -98.5546875 179.7109375 C-92.61541914 182.70781603 -87.65322626 183.29103614 -81.125 183.1875 C-80.36058594 183.18685547 -79.59617187 183.18621094 -78.80859375 183.18554688 C-75.06785371 183.15696737 -71.49947939 182.95799692 -67.8046875 182.36328125 C-63.76855548 181.97790109 -61.7361294 182.60083208 -58 184 C-47.13453688 185.26342594 -36.86921953 183.40191465 -28 176.75 C-24.59931727 174.76626841 -22.76438372 174.73260307 -18.875 174.5625 C-8.7107919 174.05255113 0.60245718 170.050783 8 163 C11.1204857 159.52428044 13.60578149 156.40792324 14.875 151.875 C16.3602533 148.07935267 18.55954565 146.97091556 21.8359375 144.6953125 C29.03586258 139.05493798 33.58517129 130.96878376 35 122 C35.21390618 119.06172028 35.27601872 116.13275565 35.3125 113.1875 C35.34150391 112.41857422 35.37050781 111.64964844 35.40039062 110.85742188 C35.47025778 104.48876196 33.92105654 99.23709204 29.58740234 94.43457031 C26.58765155 91.73546697 24.02050257 90.35475023 20 90 C20 88.02 20 86.04 20 84 C20.61875 83.71125 21.2375 83.4225 21.875 83.125 C24.13325765 82.06279958 24.13325765 82.06279958 26 80 C26.45673445 76.26979897 26.32398996 72.50491772 26.3125 68.75 C26.32861328 67.71230469 26.34472656 66.67460937 26.36132812 65.60546875 C26.36552917 59.02662481 25.76688922 54.48868641 21.5625 49.1875 C20.07270853 47.83788604 20.07270853 47.83788604 18.1015625 47.82421875 C14.72384713 46.49950138 14.23316712 43.8592101 12.8125 40.625 C9.49888214 33.50267828 5.30279945 27.82286384 0 22 C-0.60199219 21.30519531 -1.20398438 20.61039063 -1.82421875 19.89453125 C-11.5205499 9.35686985 -25.58396813 1.13530039 -39.125 -3.1875 C-39.91003906 -3.44724609 -40.69507813 -3.70699219 -41.50390625 -3.97460938 C-74.64582494 -14.78904659 -110.42677214 -2.4217165 -134 22 Z " fill="#255669" transform="translate(222,92)"/>
<path d="M0 0 C1.0409079 0.00506058 1.0409079 0.00506058 2.10284424 0.01022339 C37.87898569 0.26086858 69.23927703 15.03527756 94.3125 40.4375 C109.33041567 56.48342776 119.92344827 76.13669839 125.3125 97.4375 C125.49055176 98.10112549 125.66860352 98.76475098 125.85205078 99.44848633 C127.6373395 106.95319378 127.61651605 114.44871452 127.57324219 122.11401367 C127.56253659 124.36729949 127.57318088 126.61978542 127.5859375 128.87304688 C127.62027 160.64853998 113.51920513 191.80981468 91.3125 214.4375 C75.59178718 229.87107651 56.27264093 240.28581744 35.3125 246.4375 C33.73082031 246.93056641 33.73082031 246.93056641 32.1171875 247.43359375 C12.45732299 253.28674429 -14.30502929 253.21691923 -33.6875 246.4375 C-34.9146875 246.07527344 -36.141875 245.71304688 -37.40625 245.33984375 C-51.4849988 241.04931597 -64.17282905 234.6388005 -75.6875 225.4375 C-76.62335938 224.70402344 -77.55921875 223.97054687 -78.5234375 223.21484375 C-104.70056969 202.30899708 -121.3390313 172.72443551 -125.16967773 139.35229492 C-128.50659972 106.07610443 -119.41963488 74.58267923 -98.75 48.3125 C-97.40421962 46.68054794 -96.05018687 45.05536182 -94.6875 43.4375 C-94.06101562 42.67566406 -93.43453125 41.91382813 -92.7890625 41.12890625 C-70.3853568 14.74739975 -34.17825906 -0.32537463 0 0 Z M-87.6875 52.4375 C-90.2407616 55.64818824 -92.48597806 58.97869862 -94.6875 62.4375 C-95.33332031 63.38882813 -95.97914062 64.34015625 -96.64453125 65.3203125 C-105.81309163 79.30981763 -110.41138632 93.97944726 -112.6875 110.4375 C-112.87054688 111.4171875 -113.05359375 112.396875 -113.2421875 113.40625 C-115.16328605 126.48320151 -113.3805212 139.61729319 -110.6875 152.4375 C-110.38005859 153.94570313 -110.38005859 153.94570313 -110.06640625 155.484375 C-103.80935186 181.7562307 -84.19132845 207.15261884 -61.6875 221.4375 C-34.96114989 237.67295722 -3.33954324 243.31999484 27.50952148 237.00292969 C36.99607082 234.66962139 45.73512627 231.07526603 54.3125 226.4375 C55.91351563 225.58478516 55.91351563 225.58478516 57.546875 224.71484375 C64.36923945 220.9140595 70.39491257 216.51921633 76.3125 211.4375 C77.14652344 210.73753906 77.98054687 210.03757812 78.83984375 209.31640625 C101.01891035 190.14467071 114.16451535 162.49749306 116.3125 133.4375 C117.99912683 103.83237602 109.19347956 75.75965293 89.734375 53.11328125 C88.53554688 51.78876953 88.53554688 51.78876953 87.3125 50.4375 C86.43078125 49.46167969 85.5490625 48.48585937 84.640625 47.48046875 C64.82866357 26.30275237 35.93618602 12.66767696 6.9765625 11.27734375 C-29.73245276 10.43472164 -63.22646561 25.1010139 -87.6875 52.4375 Z " fill="#F6F8F9" transform="translate(153.6875,58.5625)"/>
<path d="M0 0 C24.88233248 21.60709481 42.00411101 52.80376612 44.54711914 85.81933594 C46.91195655 123.62258521 38.01465946 158.23322558 13.01953125 187.2890625 C-4.45579588 207.03491561 -27.49025105 223.08562992 -53.31494141 229.55957031 C-55.24096932 230.06015289 -57.14273849 230.65117871 -59.04296875 231.2421875 C-69.36028951 234.23790474 -79.70934632 234.46102561 -90.375 234.5 C-91.08944275 234.5061734 -91.8038855 234.5123468 -92.53997803 234.51870728 C-103.0996422 234.57732664 -112.94810151 233.34657558 -123.25 231.0625 C-124.47638184 230.80448608 -124.47638184 230.80448608 -125.72753906 230.54125977 C-145.61651692 226.11905311 -163.75623107 214.98169166 -179.25 202.0625 C-180.20132813 201.28132812 -181.15265625 200.50015625 -182.1328125 199.6953125 C-188.27839108 194.41424956 -193.32572679 188.47924802 -198.25 182.0625 C-198.92933594 181.19882812 -199.60867187 180.33515625 -200.30859375 179.4453125 C-221.51860514 151.57874782 -229.50939836 115.79200836 -225.5625 81.3125 C-219.9590801 46.10756531 -200.68640278 13.40134585 -171.8984375 -7.85083008 C-118.72402116 -45.57445294 -49.57042783 -41.88509018 0 0 Z M-126.25 -20.9375 C-127.25957764 -20.63199219 -127.25957764 -20.63199219 -128.28955078 -20.3203125 C-144.9494255 -15.11886763 -159.9246786 -6.08801099 -173.25 5.0625 C-174.06855469 5.72894531 -174.88710937 6.39539063 -175.73046875 7.08203125 C-190.27241845 19.37135535 -200.38572528 35.94171054 -208.25 53.0625 C-208.88421875 54.43921875 -208.88421875 54.43921875 -209.53125 55.84375 C-221.17221359 83.00599839 -220.02762545 117.85736346 -209.25 145.0625 C-202.70539295 160.98456287 -193.66324663 174.25065582 -182.25 187.0625 C-181.65574219 187.73023438 -181.06148437 188.39796875 -180.44921875 189.0859375 C-162.29493374 208.27632315 -132.5022734 224.16499036 -105.89770508 225.19189453 C-104.70040771 225.19302246 -103.50311035 225.19415039 -102.26953125 225.1953125 C-101.61603195 225.19626923 -100.96253265 225.19722595 -100.28923035 225.19821167 C-98.91181339 225.19888867 -97.53439315 225.19706806 -96.15698242 225.19287109 C-94.08569868 225.18755949 -92.01463608 225.19280994 -89.94335938 225.19921875 C-79.09393963 225.20703141 -68.76547808 224.87761501 -58.3125 221.8125 C-57.53527588 221.58852539 -56.75805176 221.36455078 -55.95727539 221.13378906 C-37.94984919 215.81124999 -21.6455609 207.05194572 -7.25 195.0625 C-6.55390625 194.50691406 -5.8578125 193.95132813 -5.140625 193.37890625 C14.02049368 177.73631157 25.88380862 154.32063689 32.75 131.0625 C33.11222656 129.89976562 33.47445312 128.73703125 33.84765625 127.5390625 C36.04199934 119.08466706 35.99887311 110.49191471 36.04516602 101.81152344 C36.05661237 100.32639991 36.07694605 98.84131509 36.10668945 97.35644531 C36.32786105 86.26079771 34.93665522 76.71650994 31.75 66.0625 C31.4582917 65.06783218 31.4582917 65.06783218 31.16069031 64.05307007 C21.23966965 30.29466727 -3.01981164 4.95327207 -33.25 -11.9375 C-41.496297 -16.31244383 -50.29771418 -19.35194452 -59.25 -21.9375 C-60.36890625 -22.26105469 -61.4878125 -22.58460937 -62.640625 -22.91796875 C-82.49631619 -27.57574653 -106.79533278 -27.00859288 -126.25 -20.9375 Z " fill="#295A6E" transform="translate(245.25,83.9375)"/>
<path d="M0 0 C2.49298189 -0.09925808 4.98462667 -0.16121987 7.47900391 -0.21386719 C8.275 -0.24375732 9.07099609 -0.27364746 9.89111328 -0.30444336 C15.7197321 -0.36076729 19.86263996 0.98079195 24.79150391 4.09863281 C25.28650391 4.59363281 25.28650391 4.59363281 25.79150391 5.09863281 C28.70206861 5.27998567 31.56617971 5.37691796 34.47900391 5.41113281 C35.28273438 5.44013672 36.08646484 5.46914062 36.91455078 5.49902344 C41.06171403 5.54310612 43.15114703 5.54785153 46.63134766 3.10644531 C51.45652821 0.04075581 56.06980622 0.54578868 61.66650391 0.66113281 C62.77896484 0.6743457 63.89142578 0.68755859 65.03759766 0.70117188 C79.48155168 1.01498895 95.06885914 2.37598804 105.79150391 13.09863281 C109.19873143 19.83112705 108.72242705 28.04282714 107.06884766 35.24707031 C104.77970974 42.01253865 102.22471796 47.28641729 95.70556641 50.72753906 C91.33082908 52.50668651 87.15392301 52.59486061 82.47900391 52.53613281 C81.63740723 52.52855957 80.79581055 52.52098633 79.92871094 52.51318359 C73.52498926 52.34345833 68.36673546 51.40285261 62.79150391 48.09863281 C62.01677734 47.65132812 61.24205078 47.20402344 60.44384766 46.74316406 C51.7154868 41.30797441 45.35725407 34.90855378 41.79150391 25.09863281 C41.79150391 23.77863281 41.79150391 22.45863281 41.79150391 21.09863281 C37.50150391 21.09863281 33.21150391 21.09863281 28.79150391 21.09863281 C28.75025391 22.06800781 28.70900391 23.03738281 28.66650391 24.03613281 C27.90649556 29.27174589 24.91667672 32.96741122 21.79150391 37.09863281 C21.30939453 37.7934375 20.82728516 38.48824219 20.33056641 39.20410156 C15.02770148 46.1624294 5.4935469 51.68973061 -3.20849609 53.09863281 C-12.64236579 53.82751899 -21.37641254 54.22273744 -29.20849609 48.09863281 C-35.49569674 41.67702645 -36.57002376 34.26134344 -36.58349609 25.59863281 C-36.60798828 24.76976562 -36.63248047 23.94089844 -36.65771484 23.08691406 C-36.68862624 16.6058244 -35.06413317 13.01786982 -30.45458984 8.30566406 C-21.44308403 1.35726757 -11.03198141 0.49269517 0 0 Z " fill="#EFF3F6" transform="translate(120.20849609375,133.9013671875)"/>
<path d="M0 0 C1.10029541 0.00161133 2.20059082 0.00322266 3.33422852 0.00488281 C11.79588559 0.13219147 18.83846012 1.24064677 26.75 4.375 C27.63171875 4.68695313 28.5134375 4.99890625 29.421875 5.3203125 C50.72782194 13.19424941 69.16743623 28.20011228 78.875 48.875 C79.31070313 49.8753125 79.74640625 50.875625 80.1953125 51.90625 C82.07942693 54.8981101 83.46167378 55.29454996 86.75 56.375 C92.37853877 62.47258367 91.99002549 67.91277866 92.0625 75.8125 C92.09150391 76.86244141 92.12050781 77.91238281 92.15039062 78.99414062 C92.15876953 80.00541016 92.16714844 81.01667969 92.17578125 82.05859375 C92.19765503 83.44389282 92.19765503 83.44389282 92.2199707 84.85717773 C91.60854314 88.13284137 90.32267322 89.33033092 87.75 91.375 C87.09 91.375 86.43 91.375 85.75 91.375 C85.75 93.355 85.75 95.335 85.75 97.375 C86.45125 97.436875 87.1525 97.49875 87.875 97.5625 C92.33553371 98.82308561 95.36218503 101.28973117 97.89648438 105.09765625 C100.6469797 110.27944048 101.3595451 114.48470507 101.1875 120.3125 C101.17356201 121.10519287 101.15962402 121.89788574 101.14526367 122.71459961 C100.96614875 128.3815156 100.30081405 133.25271754 97.75 138.375 C97.25693359 139.48875 97.25693359 139.48875 96.75390625 140.625 C93.54532521 147.19759507 88.37551632 153.06224184 81.75 156.375 C81.193125 158.1075 81.193125 158.1075 80.625 159.875 C77.7308071 167.93532723 71.51325985 173.65417456 63.953125 177.3828125 C63.22609375 177.71023438 62.4990625 178.03765625 61.75 178.375 C61.12609375 178.68179688 60.5021875 178.98859375 59.859375 179.3046875 C55.62562122 181.17252005 51.86801448 181.54782886 47.25 181.75 C41.94370197 182.04886046 39.01372188 182.97558265 34.75 186.03125 C25.89520232 191.98056719 15.33453142 192.76095035 5.03515625 190.87890625 C3.58529422 190.52910593 2.14223346 190.14730044 0.71484375 189.71484375 C-1.82925893 189.27481009 -3.71601079 189.85121452 -6.25 190.375 C-16.09673017 191.14609183 -25.43624971 191.32714773 -34.25 186.375 C-35.28125 185.83875 -36.3125 185.3025 -37.375 184.75 C-37.99375 184.29625 -38.6125 183.8425 -39.25 183.375 C-39.25 182.715 -39.25 182.055 -39.25 181.375 C-40.20519531 181.42140625 -41.16039062 181.4678125 -42.14453125 181.515625 C-53.29024325 181.8267715 -62.45356478 180.4263493 -71.39453125 173.14453125 C-76.74756846 168.03942419 -80.16975115 163.75670044 -81.25 156.375 C-82.90552204 155.68112033 -84.57447089 155.01906864 -86.25 154.375 C-94.23231708 148.71102544 -101.06072696 140.60562436 -103.00390625 130.76953125 C-103.98948792 121.17966516 -104.85305298 111.31479816 -98.703125 103.37890625 C-95.8333742 100.22345017 -93.98729457 98.57608034 -89.8125 97.4375 C-88.5440625 97.4065625 -88.5440625 97.4065625 -87.25 97.375 C-87.69034558 92.53119865 -88.67934955 90.61090197 -92.25 87.375 C-93.79126878 82.75119365 -93.37728391 78.21178846 -93.25 73.375 C-93.23324219 72.32570313 -93.21648437 71.27640625 -93.19921875 70.1953125 C-92.81434546 61.37621596 -92.81434546 61.37621596 -89.9375 57.6875 C-87.25 55.375 -87.25 55.375 -85.3046875 55.18359375 C-82.38622388 54.0350729 -81.8417423 52.00892633 -80.61425781 49.25830078 C-80.30842773 48.55431152 -80.00259766 47.85032227 -79.6875 47.125 C-71.15787127 28.93957136 -54.99262998 13.95304007 -36.23046875 6.58154297 C-31.63930458 4.93983431 -26.98577772 3.53696736 -22.25 2.375 C-21.4981543 2.18953613 -20.74630859 2.00407227 -19.97167969 1.81298828 C-13.30161118 0.31696051 -6.82283234 -0.01043805 0 0 Z M-57.25 27.375 C-58.41015625 28.39207031 -58.41015625 28.39207031 -59.59375 29.4296875 C-68.42798223 37.68908955 -74.10797902 47.6689839 -77.8515625 59.109375 C-79.25 61.375 -79.25 61.375 -82.3984375 62.203125 C-83.33945313 62.25984375 -84.28046875 62.3165625 -85.25 62.375 C-85.64674275 66.03778575 -85.96916643 69.70151575 -86.25 73.375 C-86.36988281 74.89673828 -86.36988281 74.89673828 -86.4921875 76.44921875 C-86.53601563 77.41472656 -86.57984375 78.38023437 -86.625 79.375 C-86.67398438 80.261875 -86.72296875 81.14875 -86.7734375 82.0625 C-86.60070312 82.825625 -86.42796875 83.58875 -86.25 84.375 C-85.45851563 84.73851562 -84.66703125 85.10203125 -83.8515625 85.4765625 C-80.66448616 87.80226686 -80.71019605 88.6745077 -80.0625 92.4609375 C-79.77397356 94.55492985 -79.5040698 96.65154818 -79.25 98.75 C-77.95364873 107.93682763 -76.26570338 115.94860603 -72.25 124.375 C-78.58533773 121.59483238 -83.51301572 119.33081869 -87.25 113.375 C-88.16459476 110.69896347 -88.72043112 108.16727225 -89.25 105.375 C-92.59195203 106.48898401 -92.86626428 106.80017048 -94.4375 109.75 C-98.22796292 117.97486549 -96.60998884 126.34817062 -93.57421875 134.58203125 C-89.30767327 143.58079237 -80.79726849 150.44875982 -71.51733398 153.78833008 C-67.44809503 154.84124073 -63.42474823 154.68755006 -59.25 154.5625 C-58.37988281 154.54896484 -57.50976562 154.53542969 -56.61328125 154.52148438 C-54.49191373 154.48651678 -52.37087026 154.4327253 -50.25 154.375 C-50.87648437 154.65214844 -51.50296875 154.92929688 -52.1484375 155.21484375 C-52.96570313 155.57707031 -53.78296875 155.93929687 -54.625 156.3125 C-55.84316406 156.85197266 -55.84316406 156.85197266 -57.0859375 157.40234375 C-58.48683785 158.0319903 -59.87625284 158.68812642 -61.25 159.375 C-63.12379605 159.44533769 -65.00001102 159.4593022 -66.875 159.4375 C-67.87789062 159.42847656 -68.88078125 159.41945312 -69.9140625 159.41015625 C-71.07035156 159.39275391 -71.07035156 159.39275391 -72.25 159.375 C-70.93300818 162.34142819 -69.5889694 164.26630061 -67.125 166.375 C-66.58617188 166.849375 -66.04734375 167.32375 -65.4921875 167.8125 C-58.79898446 172.47675299 -53.46905242 174.00507664 -45.3125 173.8125 C-44.47009766 173.81958984 -43.62769531 173.82667969 -42.75976562 173.83398438 C-34.97015054 173.75602826 -28.18846665 171.78279516 -21.4375 167.875 C-20.72980469 167.4728125 -20.02210938 167.070625 -19.29296875 166.65625 C-17.18525817 165.3343971 -15.21763281 163.89604649 -13.25 162.375 C-18.01410426 170.12933992 -22.02219377 175.95819361 -31.25 178.375 C-28.84107834 181.01334277 -27.02595512 182.20905497 -23.35571289 182.55200195 C-8.65698052 182.97427296 3.60763484 181.5248319 15.75 172.375 C17.99255926 170.1458961 19.8297977 167.90158198 21.75 165.375 C20.38410386 169.16689077 18.64545351 172.21881378 16.3125 175.5 C15.41724609 176.77230469 15.41724609 176.77230469 14.50390625 178.0703125 C13.02161216 180.01809316 11.53287198 181.70662439 9.75 183.375 C18.75360918 184.09337307 25.84031254 182.86158743 33.75 178.375 C34.69617188 177.49199219 35.64234375 176.60898437 36.6171875 175.69921875 C40.43901546 172.8638227 42.98739619 172.96908157 47.5 173.375 C56.13768332 173.73852556 61.65193014 172.00951769 68.1328125 166.26171875 C70.07830987 164.35350443 71.94064046 162.411793 73.75 160.375 C70.75 159.04166667 70.75 159.04166667 67.75 160.375 C66.08631742 160.49266176 64.41779197 160.55009083 62.75 160.5625 C61.88375 160.57667969 61.0175 160.59085938 60.125 160.60546875 C57.75 160.375 57.75 160.375 54.75 158.375 C54.0625 155.75 54.0625 155.75 53.75 153.375 C54.74 153.705 55.73 154.035 56.75 154.375 C66.69323448 155.56887035 75.69340627 152.81963524 83.625 146.6875 C89.51834971 141.12637343 93.37516967 134.02289611 94.0234375 125.984375 C94.23279146 118.0289244 94.0550937 112.71523394 88.75 106.375 C88.42 106.375 88.09 106.375 87.75 106.375 C87.57984375 106.96667969 87.4096875 107.55835938 87.234375 108.16796875 C85.00755021 115.42883894 82.04118052 119.90495069 75.75 124.375 C75.09 124.375 74.43 124.375 73.75 124.375 C73.94335938 123.80394531 74.13671875 123.23289062 74.3359375 122.64453125 C77.7595145 111.98398701 78.96540035 101.44842279 79.015625 90.2734375 C79.75 87.375 79.75 87.375 82.796875 85.4765625 C83.77140625 85.11304688 84.7459375 84.74953125 85.75 84.375 C86.72242729 73.21704894 86.72242729 73.21704894 82.9375 63.4375 C80.55564199 62.08373069 80.55564199 62.08373069 76.75 62.375 C76.60304687 61.76914063 76.45609375 61.16328125 76.3046875 60.5390625 C71.56818683 42.84523817 58.12397932 27.85822382 42.75 18.375 C10.53682504 -0.05146634 -29.25820204 2.7458531 -57.25 27.375 Z " fill="#F1F6F7" transform="translate(156.25,84.625)"/>
<path d="M0 0 C7.58700743 6.23820611 13.87065089 13.26272513 15.04736328 23.31982422 C16.01767664 35.53928573 14.47606021 45.87394748 6.5625 55.6875 C-1.64708418 64.23544015 -10.31614889 67.44964393 -22.00341797 67.84594727 C-34.28786266 67.97299828 -43.24468937 66.63099587 -52.70703125 58.01953125 C-61.49119667 48.57061818 -63.71081758 39.78563527 -63.49609375 27.06640625 C-62.64861868 16.75724755 -57.95320008 8.21013 -50.0859375 1.52734375 C-35.25412846 -9.13793236 -15.63495207 -8.27732757 0 0 Z " fill="#6089AD" transform="translate(742.1875,159.6875)"/>
<path d="M0 0 C0.86882812 0.36867188 1.73765625 0.73734375 2.6328125 1.1171875 C9.65736787 4.31016721 15.2584342 8.89830749 21 14 C21.7115625 14.61617187 22.423125 15.23234375 23.15625 15.8671875 C31.6890356 23.75662815 38.70301362 34.84096916 42 46 C42 46.66 42 47.32 42 48 C38.51449274 47.42287897 37.08524623 46.28554774 34.6875 43.75 C21.32025496 31.64991016 -0.75317755 32.67780508 -17.625 32.6640625 C-19.50341895 32.65761826 -21.38183694 32.65088876 -23.26025391 32.64389038 C-27.17678147 32.63198889 -31.09322128 32.62820245 -35.00976562 32.62939453 C-39.99568716 32.62959799 -44.98104049 32.6022358 -49.96682739 32.56785011 C-53.83962528 32.54548017 -57.71228819 32.54155997 -61.58514404 32.54261398 C-63.42211881 32.54027552 -65.25909831 32.53155264 -67.0960083 32.51594925 C-81.59758876 32.40422762 -94.25247187 33.46946742 -106 43 C-106.78375 43.78375 -107.5675 44.5675 -108.375 45.375 C-108.91125 45.91125 -109.4475 46.4475 -110 47 C-110.99 47 -111.98 47 -113 47 C-108.95301423 33.51004745 -102.90925637 23.79519299 -93 14 C-92.34128906 13.33097656 -91.68257812 12.66195312 -91.00390625 11.97265625 C-67.04289072 -10.7516617 -29.05799535 -13.15090847 0 0 Z " fill="#2CADAC" transform="translate(191,99)"/>
<path d="M0 0 C1.87169508 -0.0020262 3.74338938 -0.00494216 5.61508179 -0.00869751 C9.52683064 -0.01310171 13.43837297 -0.00675588 17.35009766 0.00732422 C22.31543927 0.02434338 27.28029163 0.01460891 32.24561501 -0.00339317 C36.1100112 -0.01434401 39.97429556 -0.01073231 43.83869553 -0.0030098 C45.66676265 -0.0010351 47.49484057 -0.00336873 49.32289505 -0.01044846 C67.66303117 -0.06586861 87.86948352 0.43525251 101.76171875 13.890625 C104.5860225 16.07535696 107.3418584 16.54404884 110.828125 17.01171875 C112.7109375 17.3984375 112.7109375 17.3984375 114.7109375 19.3984375 C116.07422098 25.6695415 115.80535853 32.00928109 115.7109375 38.3984375 C114.74671875 38.6975 113.7825 38.9965625 112.7890625 39.3046875 C109.62500759 41.00227165 109.62500759 41.00227165 109.06054688 43.34375 C108.73343431 45.86779274 108.56837742 48.35553839 108.4609375 50.8984375 C108.3337528 52.70854832 108.2035641 54.51845068 108.0703125 56.328125 C108.01294922 57.20049805 107.95558594 58.07287109 107.89648438 58.97167969 C106.96583946 71.14353554 106.96583946 71.14353554 103.7109375 74.3984375 C103.5665625 73.2640625 103.4221875 72.1296875 103.2734375 70.9609375 C103.09922272 67.59066549 103.09922272 67.59066549 101.7109375 66.3984375 C99.23609001 66.28761774 96.78449915 66.23679842 94.30859375 66.22265625 C92.76235668 66.19942473 91.21613273 66.17530614 89.66992188 66.15039062 C87.23453429 66.11552623 84.79961834 66.08608341 82.36401367 66.07250977 C70.59217734 65.99407108 60.39445859 65.77088443 51.5234375 56.9609375 C47.74894637 53.35828349 44.0649432 50.27208126 39.7109375 47.3984375 C39.0715625 46.9653125 38.4321875 46.5321875 37.7734375 46.0859375 C32.5944358 44.3596036 27.42376596 44.94305197 22.5546875 47.2890625 C18.67124198 49.62571193 15.22056937 52.54458459 11.7109375 55.3984375 C0.84482075 64.05032669 -8.89180904 67.53864959 -22.7890625 68.0234375 C-23.706875 68.06210938 -24.6246875 68.10078125 -25.5703125 68.140625 C-27.80970778 68.23393314 -30.04911504 68.31971935 -32.2890625 68.3984375 C-31.6290625 69.0584375 -30.9690625 69.7184375 -30.2890625 70.3984375 C-29.82026451 73.99255542 -29.84544802 75.75007787 -31.9140625 78.7734375 C-34.2890625 80.3984375 -34.2890625 80.3984375 -37.2890625 81.0234375 C-40.2890625 80.3984375 -40.2890625 80.3984375 -42.4140625 78.2109375 C-47.55200087 68.97970383 -48.97451155 58.46342331 -49.98657227 48.11474609 C-50.26563924 45.77313911 -50.54653237 43.63757581 -51.2890625 41.3984375 C-53.77141923 39.60306875 -53.77141923 39.60306875 -56.2890625 38.3984375 C-56.8125 36.0859375 -56.8125 36.0859375 -56.6640625 33.3984375 C-56.62023437 32.43292969 -56.57640625 31.46742188 -56.53125 30.47265625 C-56.45132813 29.45816406 -56.37140625 28.44367188 -56.2890625 27.3984375 C-56.20914063 26.35300781 -56.12921875 25.30757812 -56.046875 24.23046875 C-55.82362125 21.61569373 -55.57165542 19.00737573 -55.2890625 16.3984375 C-54.48082031 16.23988281 -53.67257813 16.08132812 -52.83984375 15.91796875 C-46.42798597 14.51803358 -42.66373595 13.50222319 -38.2890625 8.3984375 C-26.98311565 -0.54114838 -13.67366244 -0.05254858 0 0 Z M-38.625 13.58203125 C-43.84831536 19.28353745 -42.75179652 26.47510789 -42.60546875 33.73046875 C-42.2808821 40.58209901 -40.27121104 44.92075183 -36.0390625 50.2109375 C-27.61117562 56.91493843 -19.78126625 57.40849248 -9.2890625 56.3984375 C3.55292143 53.5763719 12.29274311 45.96514089 19.7109375 35.3984375 C21.89346574 31.62924587 22.7109375 28.83935564 22.7109375 24.3984375 C27.0009375 24.3984375 31.2909375 24.3984375 35.7109375 24.3984375 C36.2059375 27.3684375 36.2059375 27.3684375 36.7109375 30.3984375 C40.33853698 41.56194304 49.83033371 47.94393232 59.79296875 53.0859375 C65.21031006 55.52265327 70.09711691 55.64317378 75.9609375 55.7109375 C76.78207031 55.73994141 77.60320312 55.76894531 78.44921875 55.79882812 C84.33247579 55.8594322 88.83890089 54.8029932 93.7109375 51.3984375 C101.01325283 43.82702321 102.04111842 34.86657132 102.109375 24.73046875 C101.56685378 20.19350205 100.16838899 16.91194482 96.984375 13.60546875 C92.10577795 10.02180795 87.60422205 7.79543274 81.7109375 6.3984375 C80.85886719 6.19347656 80.00679688 5.98851562 79.12890625 5.77734375 C71.39297729 4.27572434 63.63424234 4.12916035 55.7734375 4.0234375 C54.68289062 3.99741455 53.59234375 3.9713916 52.46875 3.94458008 C46.04831146 3.9301956 43.01241117 4.60851056 37.7109375 8.3984375 C34.69785688 8.97933318 31.77086708 8.95903016 28.7109375 8.8984375 C27.92976563 8.91390625 27.14859375 8.929375 26.34375 8.9453125 C20.95157613 8.90900156 18.07672137 7.77672264 13.7109375 4.3984375 C-1.59527688 -0.70363396 -26.77701126 3.03212893 -38.625 13.58203125 Z " fill="#245669" transform="translate(126.2890625,130.6015625)"/>
<path d="M0 0 C41.4 0 41.4 0 50 7 C56.31235789 13.59928325 57.59429033 19.74344482 57.44140625 28.671875 C56.54527012 35.42858283 52.98070408 40.78836833 47.625 44.9375 C40.37766941 49.27001838 34.30511513 50.43429471 26 50.1875 C23.03 50.125625 20.06 50.06375 17 50 C17 56.93 17 63.86 17 71 C11.39 71 5.78 71 0 71 C0 47.57 0 24.14 0 0 Z " fill="#5F87AB" transform="translate(916,155)"/>
<path d="M0 0 C5.94 0 11.88 0 18 0 C18.33 9.9 18.66 19.8 19 30 C25.95200692 22.33047833 25.95200692 22.33047833 32.5625 14.4375 C33.31917969 13.53257812 34.07585938 12.62765625 34.85546875 11.6953125 C37.02623487 9.07358836 37.02623487 9.07358836 38.67578125 6.3046875 C40.64290747 3.41956905 41.97719178 1.79289771 45 0 C51.27870722 -1.07658826 57.68821146 -0.5153779 64 0 C62.22499318 3.80127494 59.80958849 6.54942608 56.9375 9.5625 C52.41893113 14.39089657 48.15182802 19.35620514 44.01953125 24.5234375 C42.20938749 26.74322694 40.31952368 28.83652039 38.375 30.9375 C35.72832143 33.6227919 35.72832143 33.6227919 36.20556641 36.00415039 C37.53129684 39.33477309 40.01607863 41.79575622 42.375 44.4375 C43.46659852 45.6844997 44.55773346 46.93190535 45.6484375 48.1796875 C46.20499023 48.81229492 46.76154297 49.44490234 47.33496094 50.09667969 C49.92418034 53.0564384 52.4633456 56.05769455 55 59.0625 C55.4439209 59.58577881 55.8878418 60.10905762 56.34521484 60.64819336 C57.56907005 62.09407953 58.78473867 63.54688325 60 65 C60.763125 65.90621094 61.52625 66.81242187 62.3125 67.74609375 C64 70 64 70 64 72 C46.389081 73.29620352 46.389081 73.29620352 41.4296875 70.60546875 C39.66439364 68.51184728 38.36354918 66.37400298 37 64 C35.5672581 62.20839808 34.10692552 60.43863779 32.625 58.6875 C31.08333333 56.79166667 29.54166667 54.89583333 28 53 C23.545 47.555 23.545 47.555 19 42 C18.67 51.9 18.34 61.8 18 72 C12.06 72 6.12 72 0 72 C0 48.24 0 24.48 0 0 Z " fill="#6189AC" transform="translate(841,154)"/>
<path d="M0 0 C16.83 0 33.66 0 51 0 C51 4.62 51 9.24 51 14 C39.78 14 28.56 14 17 14 C17 19.28 17 24.56 17 30 C26.9 30 36.8 30 47 30 C47 34.29 47 38.58 47 43 C37.1 43 27.2 43 17 43 C17.33 47.95 17.66 52.9 18 58 C29.22 58.33 40.44 58.66 52 59 C52 63.29 52 67.58 52 72 C34.84 72 17.68 72 0 72 C0 48.24 0 24.48 0 0 Z " fill="#218383" transform="translate(498,154)"/>
<path d="M0 0 C-0.99 4.29 -1.98 8.58 -3 13 C-9 12 -9 12 -12.5625 10.875 C-19.18268247 9.22629555 -26.38372457 9.4853571 -32.6953125 12.12890625 C-37.02430891 14.75059219 -40.43515749 17.74122921 -42.41015625 22.46484375 C-44.21752935 30.23295728 -44.56599438 39.43822468 -40.26953125 46.421875 C-36.90911714 50.59912823 -33.13030129 53.33631658 -28 55 C-20.00446071 55.7355514 -13.3061047 55.30842477 -6 52 C-5.01 52 -4.02 52 -3 52 C-2.66127487 53.41538717 -2.32925376 54.83237963 -2 56.25 C-1.814375 57.03890625 -1.62875 57.8278125 -1.4375 58.640625 C-1 61 -1 61 -1 65 C-8.26705521 68.48993544 -14.40699173 69.65415052 -22.4375 69.5 C-23.45086426 69.48718994 -24.46422852 69.47437988 -25.50830078 69.46118164 C-37.02199373 69.1482187 -45.69349744 66.2257 -54 58 C-62.32519295 47.90615018 -63.04478521 37.0051369 -62.28564453 24.38769531 C-61.36128388 16.66098836 -56.81183632 9.70234793 -51.12109375 4.53125 C-36.59306354 -5.95675708 -16.18898354 -7.6183452 0 0 Z " fill="#5C85A9" transform="translate(671,158)"/>
<path d="M0 0 C1.31242676 -0.00193359 1.31242676 -0.00193359 2.65136719 -0.00390625 C9.40334163 0.10624832 15.12621631 1.26094599 21.1875 4.375 C20.70810632 9.08903788 20.21915952 13.04079301 18.1875 17.375 C17.04410156 17.05273438 15.90070312 16.73046875 14.72265625 16.3984375 C10.31633249 15.30243357 6.152014 15.00819369 1.625 15 C0.90892578 14.97550781 0.19285156 14.95101562 -0.54492188 14.92578125 C-7.37637488 14.88848487 -11.4021134 17.33956243 -16.625 21.75 C-21.52554955 27.63065946 -21.2962243 34.38553117 -21.1953125 41.73046875 C-20.52527111 48.10953626 -17.8335608 51.40576127 -13.375 55.75 C-5.98450621 60.4366546 2.87984405 60.54471271 11.25390625 58.69921875 C13.59957104 57.99518565 15.89806476 57.24322826 18.1875 56.375 C20.47321429 64.80357143 20.47321429 64.80357143 20.1875 69.375 C8.26671432 74.6476552 -7.14312491 76.16791643 -19.5625 71.4375 C-27.88614761 67.14956032 -35.50995401 60.86221401 -39.03125 51.99609375 C-40.12472798 46.92782332 -40.35109764 41.98758995 -40.4375 36.8125 C-40.46086426 35.84296387 -40.48422852 34.87342773 -40.50830078 33.87451172 C-40.41490816 25.40451947 -37.80479775 19.23221685 -32.63671875 12.5703125 C-22.97319922 3.20712173 -13.37883807 -0.02046476 0 0 Z " fill="#5F87AC" transform="translate(806.8125,153.625)"/>
<path d="M0 0 C16.17 0 32.34 0 49 0 C49 4.95 49 9.9 49 15 C38.77 15 28.54 15 18 15 C18 20.61 18 26.22 18 32 C26.91 32 35.82 32 45 32 C45 36.62 45 41.24 45 46 C35.76 46 26.52 46 17 46 C17 54.58 17 63.16 17 72 C11.39 72 5.78 72 0 72 C0 48.24 0 24.48 0 0 Z " fill="#258586" transform="translate(434,154)"/>
<path d="M0 0 C1.09763672 -0.020625 2.19527344 -0.04125 3.32617188 -0.0625 C10.31606534 -0.09620654 15.96325925 0.11197609 21.375 5 C23.41456511 9.31907905 22.76598392 13.31313429 21.22265625 17.71484375 C16.12878629 27.98343876 10.03051717 35.25329379 -0.5625 40.25 C-7.96084838 41.77597513 -17.29588713 43.39883268 -24.24609375 39.8984375 C-28.87053972 36.04614673 -31.10967703 32.2718266 -31.7956543 26.17919922 C-31.93801708 23.86561497 -31.982789 21.56774766 -32 19.25 C-32.03287109 18.46882813 -32.06574219 17.68765625 -32.09960938 16.8828125 C-32.13793117 12.74405896 -31.86325625 10.07863284 -29.2109375 6.80078125 C-21.163857 -0.949578 -10.48585602 0.04943244 0 0 Z " fill="#709FC5" transform="translate(120.5625,139.75)"/>
<path d="M0 0 C1.88912109 0.0009668 1.88912109 0.0009668 3.81640625 0.00195312 C5.78673828 0.02612305 5.78673828 0.02612305 7.796875 0.05078125 C9.09496094 0.04755859 10.39304688 0.04433594 11.73046875 0.04101562 C22.23195614 0.09989247 31.85698046 1.00506416 40.484375 7.61328125 C44.40868081 12.78093147 43.12888415 20.29375725 42.546875 26.36328125 C41.42981916 32.47724335 39.44966741 36.34047722 34.546875 40.36328125 C29.11725395 43.07809178 19.6870197 42.07468488 13.83984375 40.75 C11.54460798 39.81122789 9.61341983 38.73450367 7.546875 37.36328125 C6.71671875 36.81542969 5.8865625 36.26757812 5.03125 35.703125 C-1.7810984 30.73663747 -7.90881527 24.20440568 -10.1171875 15.8515625 C-10.46175219 13.29937987 -10.69082453 10.81299233 -10.765625 8.23828125 C-10.80300781 7.39007813 -10.84039062 6.541875 -10.87890625 5.66796875 C-10.453125 3.36328125 -10.453125 3.36328125 -8.82983398 1.74194336 C-5.72982921 -0.05628232 -3.5736373 -0.00931947 0 0 Z " fill="#72A1C8" transform="translate(179.453125,139.63671875)"/>
<path d="M0 0 C19.8 0 39.6 0 60 0 C60 4.29 60 8.58 60 13 C52.74 13 45.48 13 38 13 C38 32.14 38 51.28 38 71 C32.39 71 26.78 71 21 71 C21 51.86 21 32.72 21 13 C14.07 13 7.14 13 0 13 C0 8.71 0 4.42 0 0 Z " fill="#5D86AB" transform="translate(1010,155)"/>
<path d="M0 0 C5.94 0 11.88 0 18 0 C18 19.47 18 38.94 18 59 C28.23 59 38.46 59 49 59 C49 63.29 49 67.58 49 72 C32.83 72 16.66 72 0 72 C0 48.24 0 24.48 0 0 Z " fill="#228484" transform="translate(333,154)"/>
<path d="M0 0 C5.16781454 5.45491535 6.51224717 11.00518678 6.6875 18.4375 C6.4392354 26.38196721 4.9552944 32.50190283 -0.75 38.375 C-6.9109016 42.68763112 -13.3715656 43.28327201 -20.75 42.375 C-27.36321358 39.731908 -31.91815005 34.8713763 -34.75 28.375 C-35.20451225 25.30242474 -35.16598475 22.22797764 -35.1875 19.125 C-35.22037109 18.30386719 -35.25324219 17.48273438 -35.28710938 16.63671875 C-35.34220257 10.31602647 -33.68731171 6.30049112 -29.75 1.375 C-21.09747563 -7.27752437 -9.68483938 -5.72285963 0 0 Z " fill="#FAFBFC" transform="translate(732.75,171.625)"/>
<path d="M0 0 C3.89572687 3.63601175 5.79292762 5.95335434 6.3359375 11.3203125 C6.44886895 22.31983529 4.93806788 30.8859403 -2.796875 39.17578125 C-9.16297157 44.44699951 -17.22621119 48.14724137 -25.5 48.125 C-26.4590625 48.12757813 -27.418125 48.13015625 -28.40625 48.1328125 C-31 48 -31 48 -34 47 C-33.39816251 49.02045442 -32.72693904 51.02111039 -32 53 C-26.93067925 55.53466037 -19.34549719 54.12536783 -14 53 C-18.92452067 59.25937243 -24.20889677 64.61877549 -32 67 C-34.63043347 66.98891282 -37.19237394 66.90056085 -39.8125 66.75 C-45.97578605 66.5640328 -49.57469658 67.16980777 -54.1640625 71.3984375 C-61.00176292 77.36323999 -69.37361914 77.53359057 -78 77 C-75.35249758 74.12436812 -73.15695824 72.43468581 -69.5625 70.9375 C-54.77961791 63.7422919 -44.33177724 50.92392628 -38.765625 35.56640625 C-37.23613641 30.43949808 -36.12261699 25.22780811 -35 20 C-34.354865 17.32729786 -33.67913778 14.66430977 -33 12 C-32.67 12 -32.34 12 -32 12 C-31.97421875 12.6290625 -31.9484375 13.258125 -31.921875 13.90625 C-31.47116499 20.70787376 -30.3726075 26.906653 -25.16015625 31.6875 C-21.26995377 34.05116733 -17.38513332 33.80328268 -13 33 C-7.04969282 30.1365416 -3.72256631 25.88074324 -1 20 C0.22149428 15.93675448 0.11081202 11.95686169 0.0625 7.75 C0.05798828 7.00492188 0.05347656 6.25984375 0.04882812 5.4921875 C0.03709246 3.6614236 0.0191585 1.83070127 0 0 Z " fill="#245668" transform="translate(244,191)"/>
<path d="M0 0 C5.94 0 11.88 0 18 0 C18 23.76 18 47.52 18 72 C12.06 72 6.12 72 0 72 C0 48.24 0 24.48 0 0 Z " fill="#278888" transform="translate(395,154)"/>
<path d="M0 0 C5.61 0 11.22 0 17 0 C17 23.43 17 46.86 17 71 C11.39 71 5.78 71 0 71 C0 47.57 0 24.14 0 0 Z " fill="#5F88AC" transform="translate(983,155)"/>
<path d="M0 0 C1.03060547 -0.00612305 2.06121094 -0.01224609 3.12304688 -0.01855469 C4.21037109 -0.00469727 5.29769531 0.00916016 6.41796875 0.0234375 C8.09342773 0.03648926 8.09342773 0.03648926 9.80273438 0.04980469 C24.27032811 0.30442766 39.86288862 1.65585737 50.60546875 12.3984375 C54.01269627 19.13093174 53.53639189 27.34263182 51.8828125 34.546875 C49.59367458 41.31234333 47.0386828 46.58622198 40.51953125 50.02734375 C36.14479393 51.8064912 31.96788785 51.8946653 27.29296875 51.8359375 C26.45137207 51.82836426 25.60977539 51.82079102 24.74267578 51.81298828 C18.3389541 51.64326302 13.1807003 50.7026573 7.60546875 47.3984375 C6.44337891 46.72748047 6.44337891 46.72748047 5.2578125 46.04296875 C-4.117186 40.20511493 -10.6649609 33.1434941 -14.0078125 22.43359375 C-15.09978987 16.68692495 -15.26325571 11.20023637 -12.70703125 5.8984375 C-8.87459415 1.75526226 -5.65745911 0.02082318 0 0 Z M-6.39453125 8.3984375 C-7.83982236 14.70309323 -6.27338058 21.71828361 -3.39453125 27.3984375 C2.33397464 36.32776323 10.16171087 43.66620744 20.60546875 46.3984375 C23.3224278 46.63398032 25.89267726 46.76833827 28.60546875 46.7734375 C29.63414062 46.81017578 29.63414062 46.81017578 30.68359375 46.84765625 C35.81111239 46.87701227 38.68371459 45.64018645 42.60546875 42.3984375 C47.43457197 34.57195987 47.60003124 25.33984392 46.60546875 16.3984375 C44.55850491 11.70024005 41.24689991 9.43356494 36.60546875 7.5234375 C28.59337584 4.88612359 20.31328795 5.18111522 11.98046875 5.1484375 C10.64452983 5.12769512 9.30859232 5.10686259 7.97265625 5.0859375 C6.70421875 5.08078125 5.43578125 5.075625 4.12890625 5.0703125 C2.39519775 5.05629395 2.39519775 5.05629395 0.62646484 5.04199219 C-2.68169602 5.43231988 -4.05358687 6.06981574 -6.39453125 8.3984375 Z " fill="#F3F6F8" transform="translate(175.39453125,134.6015625)"/>
<path d="M0 0 C1.91619141 -0.00580078 1.91619141 -0.00580078 3.87109375 -0.01171875 C4.53351074 -0.00543457 5.19592773 0.00084961 5.87841797 0.00732422 C7.90010089 0.02338864 9.91978513 0.00745985 11.94140625 -0.01171875 C13.85759766 -0.00591797 13.85759766 -0.00591797 15.8125 0 C16.98103516 0.00338379 18.14957031 0.00676758 19.35351562 0.01025391 C22.63862214 0.42798578 24.01175087 1.17402733 26.40625 3.3984375 C25.354375 3.7490625 24.3025 4.0996875 23.21875 4.4609375 C17.68764722 6.9030978 15.39412978 10.9513366 13.2109375 16.359375 C10.78314077 23.50694438 9.86343826 29.87446366 10.40625 37.3984375 C4.47797637 36.55740214 1.39266315 33.70888802 -2.59375 29.3984375 C-7.75217612 22.46773061 -10.65402357 16.95533667 -10.90625 8.2734375 C-10.94363281 7.42523438 -10.98101562 6.57703125 -11.01953125 5.703125 C-10.59375 3.3984375 -10.59375 3.3984375 -8.97924805 1.77929688 C-5.84485544 -0.03506446 -3.61156437 0.0104582 0 0 Z " fill="#6D9BC3" transform="translate(179.59375,139.6015625)"/>
<path d="M0 0 C0.33 0 0.66 0 1 0 C1.00257812 0.95519531 1.00515625 1.91039062 1.0078125 2.89453125 C1.3026367 12.75148715 2.76421174 20.39598048 9.77734375 27.90234375 C16.84614316 34.22868721 22.85258851 36.32731277 32.25 36.21484375 C37.82594114 35.77922335 42.38880214 33.32064008 46.578125 29.671875 C49.48732285 26.25116984 51.20774953 22.08411058 53 18 C53.33 18 53.66 18 54 18 C54.49231014 28.17440946 52.20022723 35.72696914 46.6953125 44.28515625 C42.92584394 48.09805187 36.87814041 47.26831477 31.8125 47.3125 C20.32881351 47.30150615 13.48780264 44.26760348 5.12890625 36.22265625 C-1.42742486 29.37760597 -4.09356351 21.65253725 -4.375 12.25 C-4.24871524 7.55752423 -3.45953429 3.45953429 0 0 Z " fill="#265869" transform="translate(64,192)"/>
<path d="M0 0 C5.53985273 8.30977909 3.30070693 20.93665243 2.25 30.5 C2.11078125 31.7684375 1.9715625 33.036875 1.828125 34.34375 C-0.08388168 42.78543987 -5.34055535 49.51451054 -12.5625 54.125 C-23.97491862 60.48382562 -35.97532313 62.88465047 -49 61 C-51.2578125 59.97900391 -51.2578125 59.97900391 -53 59 C-49.96729092 57.28708098 -47.44069762 56.6800872 -44 56.25 C-31.13907729 53.99249761 -21.05034361 46.52802369 -12.96875 36.47265625 C-5.58185538 25.70010159 -1.41866658 12.91475781 0 0 Z " fill="#245668" transform="translate(180,206)"/>
<path d="M0 0 C0.33 0 0.66 0 1 0 C1.48251329 9.43581541 1.91745431 22.23185385 -3.62890625 30.3984375 C-5.65391143 32.27207866 -7.60494493 33.63312514 -10 35 C-10.84820312 35.48855469 -11.69640625 35.97710937 -12.5703125 36.48046875 C-22.64235345 41.84721296 -33.75356325 42.33272347 -45 41 C-51.09180259 38.9803635 -55.7290589 35.77568868 -60 31 C-60 30.34 -60 29.68 -60 29 C-58.989375 29.33 -57.97875 29.66 -56.9375 30 C-44.98461322 32.9882217 -33.63661856 31.10198038 -22.8125 25.625 C-22.20986328 25.33367187 -21.60722656 25.04234375 -20.98632812 24.7421875 C-17.35476221 22.92441136 -14.79268065 20.9146598 -12 18 C-11.34 18 -10.68 18 -10 18 C-9.731875 17.43152344 -9.46375 16.86304688 -9.1875 16.27734375 C-7.53261283 13.1036621 -5.47906833 10.25116073 -3.4375 7.31640625 C-1.96699267 4.94681156 -0.95875204 2.61352118 0 0 Z " fill="#235667" transform="translate(146,217)"/>
<path d="M0 0 C1.2181263 -0.00744736 1.2181263 -0.00744736 2.46086121 -0.01504517 C5.14945327 -0.02965226 7.83798607 -0.03647104 10.52661133 -0.04199219 C11.45052485 -0.04481956 12.37443836 -0.04764694 13.32634926 -0.05056 C18.22831127 -0.06555715 23.13024388 -0.07477963 28.03222656 -0.07910156 C33.05265024 -0.08454638 38.0727972 -0.10848744 43.09313488 -0.13707352 C46.98754094 -0.15588658 50.88188332 -0.16091559 54.77633095 -0.16243744 C56.62395023 -0.1654293 58.47156935 -0.17333755 60.3191433 -0.18662262 C74.21879541 -0.27932588 87.70373606 0.45095242 100.92114258 5.16113281 C100.92114258 6.48113281 100.92114258 7.80113281 100.92114258 9.16113281 C99.99172852 8.95617187 99.06231445 8.75121094 98.10473633 8.54003906 C96.86852539 8.270625 95.63231445 8.00121094 94.35864258 7.72363281 C93.14047852 7.45679688 91.92231445 7.18996094 90.66723633 6.91503906 C82.84370746 5.34054368 75.32067424 4.91819046 67.35864258 4.84863281 C66.24811523 4.81962891 65.13758789 4.790625 63.9934082 4.76074219 C57.4543605 4.70986988 54.30760532 5.27049002 48.92114258 9.16113281 C45.90827519 9.74276605 42.98096379 9.72172333 39.92114258 9.66113281 C39.1399707 9.67660156 38.35879883 9.69207031 37.55395508 9.70800781 C32.16178121 9.67169688 29.28692645 8.53941795 24.92114258 5.16113281 C13.19619991 1.25281859 -6.04554427 3.65693277 -17.64135742 7.41113281 C-21.18870438 9.2170549 -23.77375407 11.22067356 -26.63354492 13.95410156 C-28.07885742 15.16113281 -28.07885742 15.16113281 -30.07885742 15.16113281 C-30.40885742 13.84113281 -30.73885742 12.52113281 -31.07885742 11.16113281 C-25.24234245 6.14407123 -19.42380106 3.38514525 -12.07885742 1.16113281 C-11.53359909 0.98374573 -10.98834076 0.80635864 -10.42655945 0.62359619 C-6.9646809 -0.05834387 -3.51452615 0.00514857 0 0 Z " fill="#23586C" transform="translate(115.078857421875,130.8388671875)"/>
<path d="M0 0 C14.33310007 -0.43876837 14.33310007 -0.43876837 19 3 C22.60113934 6.94037711 22.55669642 10.20246732 22.42578125 15.36328125 C22 18 22 18 19.6875 21.125 C13.68222725 25.31472518 7.07804053 24.06493615 0 24 C0 16.08 0 8.16 0 0 Z " fill="#F8F9FB" transform="translate(933,168)"/>
<path d="M0 0 C2 2 2 2 2.4375 5.3125 C1.88296121 9.98646982 0.26622871 10.73377129 -3 14 C-3.87430445 16.27856822 -3.87430445 16.27856822 -4.5 18.8125 C-6.08965472 24.82983709 -8.65952314 29.58638324 -13 34.0625 C-15.65900142 35.30890692 -17.20338615 34.65775622 -20 34 C-20.43490842 21.07355518 -18.65213245 11.16383495 -9.5625 1.375 C-6.1800925 -0.43995037 -3.78033301 -0.42796223 0 0 Z " fill="#B0CADE" transform="translate(132,143)"/>
<path d="M0 0 C2.59335905 2.59335905 2.27726563 4.48747032 2.36328125 8.02734375 C1.8999637 10.54320786 0.78054746 11.21945254 -1 13 C-1.64580759 15.22782608 -1.64580759 15.22782608 -1.9375 17.6875 C-3.00195881 23.75491521 -4.98689139 30.04099247 -10 34 C-16.44444444 33.55555556 -16.44444444 33.55555556 -18 32 C-19.26227892 22.31563058 -16.6243323 12.11305741 -10.875 4.25 C-7.54624246 0.14510728 -5.31390974 -0.33211936 0 0 Z " fill="#ABC7DC" transform="translate(207,144)"/>
<path d="M0 0 C10.56 0 21.12 0 32 0 C32 3.96 32 7.92 32 12 C21.44 12 10.88 12 0 12 C0 8.04 0 4.08 0 0 Z " fill="#24888B" transform="translate(563,189)"/>
<path d="M0 0 C16.48062802 -0.85244628 32.45271095 4.84747866 44.8125 15.75 C47.49778718 18.31974126 49.9359798 20.90071415 52 24 C52 24.66 52 25.32 52 26 C44.49139988 26.81912001 40.82058188 24.59211737 35 20 C34.24074219 19.36191406 33.48148438 18.72382812 32.69921875 18.06640625 C23.84762679 10.6345459 14.07882291 5.34868616 2.79296875 2.60546875 C1 2 1 2 0 0 Z " fill="#86CFCD" transform="translate(156,96)"/>
<path d="M0 0 C5.61 0 11.22 0 17 0 C16.34 1.32 15.68 2.64 15 4 C14.54724722 6.81496741 14.54724722 6.81496741 14.375 9.75 C14.25125 11.4825 14.1275 13.215 14 15 C10.37 15 6.74 15 3 15 C2.8046875 12.55859375 2.609375 10.1171875 2.4140625 7.67578125 C2.03034416 4.53202437 2.03034416 4.53202437 0 0 Z " fill="#B1E2DC" transform="translate(147,140)"/>
<path d="M0 0 C0 1.32 0 2.64 0 4 C-0.92941406 3.79503906 -1.85882813 3.59007812 -2.81640625 3.37890625 C-4.67072266 2.97478516 -4.67072266 2.97478516 -6.5625 2.5625 C-7.78066406 2.29566406 -8.99882812 2.02882812 -10.25390625 1.75390625 C-17.49261726 0.29710622 -24.5776596 -0.25563037 -31.9375 -0.5625 C-32.90751953 -0.60568359 -33.87753906 -0.64886719 -34.87695312 -0.69335938 C-37.25118601 -0.79862093 -39.62550921 -0.90075707 -42 -1 C-42.33 -1.99 -42.66 -2.98 -43 -4 C-29.23543935 -7.20828105 -13.17235482 -4.72642996 0 0 Z " fill="#336677" transform="translate(216,136)"/>
<path d="M0 0 C0.84433594 0.00322266 1.68867187 0.00644531 2.55859375 0.00976562 C3.86763672 0.02233398 3.86763672 0.02233398 5.203125 0.03515625 C6.53537109 0.04192383 6.53537109 0.04192383 7.89453125 0.04882812 C10.08079829 0.06058225 12.26692679 0.07701376 14.453125 0.09765625 C14.453125 0.75765625 14.453125 1.41765625 14.453125 2.09765625 C11.813125 2.42765625 9.173125 2.75765625 6.453125 3.09765625 C6.453125 3.42765625 6.453125 3.75765625 6.453125 4.09765625 C4.85984375 4.26201172 4.85984375 4.26201172 3.234375 4.4296875 C-11.17450895 5.99504399 -11.17450895 5.99504399 -23.1015625 13.890625 C-24.546875 15.09765625 -24.546875 15.09765625 -26.546875 15.09765625 C-26.876875 13.77765625 -27.206875 12.45765625 -27.546875 11.09765625 C-19.88271071 4.50954941 -10.26818633 -0.06937964 0 0 Z " fill="#266475" transform="translate(111.546875,130.90234375)"/>
<path d="M0 0 C2 2 2 2 2.375 5.375 C2 9 2 9 0.3125 11.4375 C-2 13 -2 13 -4.5625 13.5 C-7 13 -7 13 -8.8125 11.375 C-10.33264845 8.3347031 -10.42888292 6.35958291 -10 3 C-7.71933282 -1.02470679 -4.21240995 -0.38294636 0 0 Z " fill="#F7F9FB" transform="translate(132,143)"/>
<path d="M0 0 C2 2 2 2 2.265625 3.875 C2.26046875 4.57625 2.2553125 5.2775 2.25 6 C2.25515625 6.70125 2.2603125 7.4025 2.265625 8.125 C2 10 2 10 0 12 C-3.5 12.25 -3.5 12.25 -7 12 C-9.32528287 9.67471713 -9.29511025 9.15334102 -9.3125 6 C-9.32925781 5.29875 -9.34601563 4.5975 -9.36328125 3.875 C-9.24339844 3.25625 -9.12351563 2.6375 -9 2 C-5.54754176 -0.30163882 -4.05261287 -0.34490322 0 0 Z " fill="#FAFBFD" transform="translate(207,144)"/>
<path d="M0 0 C4.29 0 8.58 0 13 0 C13.33 1.98 13.66 3.96 14 6 C9.05 6 4.1 6 -1 6 C-0.67 4.02 -0.34 2.04 0 0 Z " fill="#376B87" transform="translate(149,155)"/>
<path d="M0 0 C0.84433594 0.00322266 1.68867187 0.00644531 2.55859375 0.00976562 C3.86763672 0.02233398 3.86763672 0.02233398 5.203125 0.03515625 C6.09128906 0.03966797 6.97945312 0.04417969 7.89453125 0.04882812 C10.08079829 0.06058225 12.26692679 0.07701376 14.453125 0.09765625 C14.453125 0.75765625 14.453125 1.41765625 14.453125 2.09765625 C11.813125 2.42765625 9.173125 2.75765625 6.453125 3.09765625 C6.453125 3.42765625 6.453125 3.75765625 6.453125 4.09765625 C4.51495765 3.98346965 2.57757401 3.85592202 0.640625 3.72265625 C-0.43832031 3.65304688 -1.51726562 3.5834375 -2.62890625 3.51171875 C-5.546875 3.09765625 -5.546875 3.09765625 -8.546875 1.09765625 C-5.6220117 0.25573843 -3.03945844 -0.02053688 0 0 Z " fill="#2D6B7A" transform="translate(111.546875,130.90234375)"/>
<path d="M0 0 C0.66 0 1.32 0 2 0 C2.28875 0.969375 2.5775 1.93875 2.875 2.9375 C3.64214682 6.10664203 3.64214682 6.10664203 6 7 C7.53668865 7.22467831 9.07968054 7.40796805 10.625 7.5625 C11.44226563 7.64628906 12.25953125 7.73007813 13.1015625 7.81640625 C13.72804687 7.87699219 14.35453125 7.93757812 15 8 C15 8.33 15 8.66 15 9 C12.89722877 9.22197585 10.79267698 9.42713637 8.6875 9.625 C7.51574219 9.74101562 6.34398437 9.85703125 5.13671875 9.9765625 C2 10 2 10 -1 8 C-1.25 4.4375 -1.25 4.4375 -1 1 C-0.67 0.67 -0.34 0.34 0 0 Z " fill="#3FB4B2" transform="translate(208,238)"/>
<path d="M0 0 C1.12664062 0.07863281 2.25328125 0.15726563 3.4140625 0.23828125 C6.375 0.6875 6.375 0.6875 9.375 2.6875 C9.375 3.6775 9.375 4.6675 9.375 5.6875 C7.98087891 5.38005859 7.98087891 5.38005859 6.55859375 5.06640625 C5.32238281 4.79699219 4.08617187 4.52757812 2.8125 4.25 C1.59433594 3.98316406 0.37617188 3.71632812 -0.87890625 3.44140625 C-4.46139157 2.72042641 -8.00459502 2.16742499 -11.625 1.6875 C-11.625 1.3575 -11.625 1.0275 -11.625 0.6875 C-7.6111815 -0.31219637 -4.11594764 -0.31697528 0 0 Z " fill="#3F687C" transform="translate(206.625,134.3125)"/>
<path d="M0 0 C5.62563377 0.40183098 8.23511709 1.96619688 12 6 C12.375 9.3125 12.375 9.3125 12 12 C11.55269531 11.61328125 11.10539063 11.2265625 10.64453125 10.828125 C10.03996094 10.30734375 9.43539062 9.7865625 8.8125 9.25 C8.17828125 8.7034375 7.5440625 8.156875 6.890625 7.59375 C5.31779514 6.26789342 3.69559234 5.00087924 2.0625 3.75 C1.381875 3.1725 0.70125 2.595 0 2 C0 1.34 0 0.68 0 0 Z " fill="#2C5F72" transform="translate(215,137)"/>
<path d="M0 0 C4.41829027 4.41829027 6.10356191 6.16158154 6.125 12.25 C6.08375 13.4875 6.0425 14.725 6 16 C5.67 16 5.34 16 5 16 C4.67 14.35 4.34 12.7 4 11 C3.01 11.99 2.02 12.98 1 14 C0.67 9.38 0.34 4.76 0 0 Z " fill="#3B6A7B" transform="translate(244,191)"/>
<path d="M0 0 C0.33 0 0.66 0 1 0 C1.05399736 1.45792884 1.09279177 2.91642712 1.125 4.375 C1.14820312 5.18710938 1.17140625 5.99921875 1.1953125 6.8359375 C1 9 1 9 -1 11 C-1.33 10.01 -1.66 9.02 -2 8 C-2.33 11.3 -2.66 14.6 -3 18 C-3.33 18 -3.66 18 -4 18 C-4.55697798 6.40660653 -4.55697798 6.40660653 -1 1 C-0.67 0.67 -0.34 0.34 0 0 Z " fill="#437986" transform="translate(64,192)"/>
<path d="M0 0 C0 0.33 0 0.66 0 1 C-2.24743045 1.53181175 -4.49807102 2.05007126 -6.75 2.5625 C-8.62945312 2.99755859 -8.62945312 2.99755859 -10.546875 3.44140625 C-13.59473748 3.93444283 -15.17641828 4.07666879 -18 3 C-11.63785614 -0.50444331 -7.13909214 -1.55271035 0 0 Z " fill="#265A6E" transform="translate(112,134)"/>
<path d="M0 0 C0.66 0 1.32 0 2 0 C2.66 3.3 3.32 6.6 4 10 C2.68 10.99 1.36 11.98 0 13 C-0.19397476 11.02145742 -0.38001321 9.0421352 -0.5625 7.0625 C-0.66691406 5.96035156 -0.77132812 4.85820312 -0.87890625 3.72265625 C-0.91886719 2.82417969 -0.95882812 1.92570313 -1 1 C-0.67 0.67 -0.34 0.34 0 0 Z " fill="#48BDBD" transform="translate(65,190)"/>
<path d="M0 0 C2.3431213 0.25561323 4.67843403 0.59270772 7 1 C8.6415049 4.2830098 7.51888624 7.42545033 7 11 C6.67 11 6.34 11 6 11 C5.34 8.69 4.68 6.38 4 4 C2.35 3.67 0.7 3.34 -1 3 C-0.67 2.01 -0.34 1.02 0 0 Z " fill="#8BADCE" transform="translate(203,141)"/>
<path d="M0 0 C5.12583611 -0.10251672 9.94997778 -0.03590199 15 1 C15 1.33 15 1.66 15 2 C14.21625 2.144375 13.4325 2.28875 12.625 2.4375 C10.03578982 2.87798925 10.03578982 2.87798925 8 4 C6.0546875 3.44140625 6.0546875 3.44140625 3.875 2.5625 C3.15054688 2.27503906 2.42609375 1.98757812 1.6796875 1.69140625 C0.84824219 1.34916016 0.84824219 1.34916016 0 1 C0 0.67 0 0.34 0 0 Z " fill="#5FBEBB" transform="translate(156,96)"/>
<path d="M0 0 C0.99 0.33 1.98 0.66 3 1 C0.36 3.64 -2.28 6.28 -5 9 C-5.33 8.01 -5.66 7.02 -6 6 C-4.02 4.02 -2.04 2.04 0 0 Z " fill="#336276" transform="translate(79,98)"/>
<path d="M0 0 C0.66 0.33 1.32 0.66 2 1 C-1.3 3.97 -4.6 6.94 -8 10 C-8.66 9.67 -9.32 9.34 -10 9 C-8.89902432 7.87187697 -7.79408444 6.74762189 -6.6875 5.625 C-6.07261719 4.99851563 -5.45773437 4.37203125 -4.82421875 3.7265625 C-3 2 -3 2 0 0 Z " fill="#6690B3" transform="translate(625,159)"/>
<path d="M0 0 C1.9451 2.91765 2.45276317 4.62537285 3 8 C1.68 7.67 0.36 7.34 -1 7 C-1 3 -1 3 0 0 Z " fill="#43B7B6" transform="translate(230,139)"/>
<path d="M0 0 C3 3 3 3 3.07421875 5.69921875 C2.94660156 6.68535156 2.81898438 7.67148438 2.6875 8.6875 C2.50767578 10.17830078 2.50767578 10.17830078 2.32421875 11.69921875 C2.21722656 12.45847656 2.11023438 13.21773437 2 14 C1.67 14 1.34 14 1 14 C0.67 9.38 0.34 4.76 0 0 Z " fill="#21828C" transform="translate(244,191)"/>
<path d="M0 0 C0.66 0.33 1.32 0.66 2 1 C1.34 2.32 0.68 3.64 0 5 C-2.97 4.505 -2.97 4.505 -6 4 C-4 2.66666667 -2 1.33333333 0 0 Z " fill="#7CA8CE" transform="translate(120,175)"/>
</svg>
